ISO-10303-21;
HEADER;
FILE_DESCRIPTION(('CNC Tube Bending Benchmark Part', '2;1'), '2;1');
FILE_NAME('single_90_bend.step', '2026-09-08T22:00:00', ('Antigravity CAD'), ('Precision Tube'), 'FastAPI STEP Gen', 'CNC CPQ Engine', 'Approved');
FILE_SCHEMA(('AUTOMOTIVE_DESIGN'));
ENDSEC;
DATA;
/* CPQ_META: {"name": "90\u00b0 Exhaust Downpipe", "tube_od_mm": 25.4, "wall_thickness_mm": 1.65, "bends": [{"bend_number": 1, "angle_deg": 90.0, "clr_mm": 50.8, "arc_length_mm": 79.8, "center": [0.0, 50.8, 150.0], "direction": "Up"}], "centerline": [[0.0, 0.0, 0.0], [0.0, 0.0, 30.0], [0.0, 0.0, 60.0], [0.0, 0.0, 90.0], [0.0, 0.0, 120.0], [0.0, 0.0, 150.0], [0.0, 0.17, 154.2], [0.0, 0.69, 158.36], [0.0, 1.55, 162.47], [0.0, 2.75, 166.49], [0.0, 4.28, 170.41], [0.0, 6.12, 174.18], [0.0, 8.27, 177.78], [0.0, 10.71, 181.2], [0.0, 13.43, 184.41], [0.0, 16.39, 187.37], [0.0, 19.6, 190.09], [0.0, 23.02, 192.53], [0.0, 26.62, 194.68], [0.0, 30.39, 196.52], [0.0, 34.31, 198.05], [0.0, 38.33, 199.25], [0.0, 42.44, 200.11], [0.0, 46.6, 200.63], [0.0, 50.8, 200.8], [0.0, 70.8, 200.8], [0.0, 106.8, 200.8], [0.0, 142.8, 200.8], [0.0, 178.8, 200.8], [0.0, 214.8, 200.8], [0.0, 250.8, 200.8]], "flattened_length_mm": 429.8} */
#1 = APPLICATION_CONTEXT('core data for automotive design');
#2 = CARTESIAN_POINT('Origin', (0., 0., 0.));
#3 = DIRECTION('Z_Axis', (0., 0., 1.));
#4 = DIRECTION('X_Axis', (1., 0., 0.));
#5 = AXIS2_PLACEMENT_3D('Placement', #2, #3, #4);
#6 = CYLINDRICAL_SURFACE('Leg_1_Straight', #5, 12.7);
#7 = CYLINDRICAL_SURFACE('Leg_2_Straight', #5, 12.7);
#8 = TOROIDAL_SURFACE('Bend_1_Toroid', #5, 50.8, 12.7);
#9 = CARTESIAN_POINT('CenterlinePoint', (0.0, 0.0, 0.0));
#10 = CARTESIAN_POINT('CenterlinePoint', (0.0, 0.0, 30.0));
#11 = CARTESIAN_POINT('CenterlinePoint', (0.0, 0.0, 60.0));
#12 = CARTESIAN_POINT('CenterlinePoint', (0.0, 0.0, 90.0));
#13 = CARTESIAN_POINT('CenterlinePoint', (0.0, 0.0, 120.0));
#14 = CARTESIAN_POINT('CenterlinePoint', (0.0, 0.0, 150.0));
#15 = CARTESIAN_POINT('CenterlinePoint', (0.0, 0.17, 154.2));
#16 = CARTESIAN_POINT('CenterlinePoint', (0.0, 0.69, 158.36));
#17 = CARTESIAN_POINT('CenterlinePoint', (0.0, 1.55, 162.47));
#18 = CARTESIAN_POINT('CenterlinePoint', (0.0, 2.75, 166.49));
#19 = CARTESIAN_POINT('CenterlinePoint', (0.0, 4.28, 170.41));
#20 = CARTESIAN_POINT('CenterlinePoint', (0.0, 6.12, 174.18));
#21 = CARTESIAN_POINT('CenterlinePoint', (0.0, 8.27, 177.78));
#22 = CARTESIAN_POINT('CenterlinePoint', (0.0, 10.71, 181.2));
#23 = CARTESIAN_POINT('CenterlinePoint', (0.0, 13.43, 184.41));
#24 = CARTESIAN_POINT('CenterlinePoint', (0.0, 16.39, 187.37));
#25 = CARTESIAN_POINT('CenterlinePoint', (0.0, 19.6, 190.09));
#26 = CARTESIAN_POINT('CenterlinePoint', (0.0, 23.02, 192.53));
#27 = CARTESIAN_POINT('CenterlinePoint', (0.0, 26.62, 194.68));
#28 = CARTESIAN_POINT('CenterlinePoint', (0.0, 30.39, 196.52));
#29 = CARTESIAN_POINT('CenterlinePoint', (0.0, 34.31, 198.05));
#30 = CARTESIAN_POINT('CenterlinePoint', (0.0, 38.33, 199.25));
#31 = CARTESIAN_POINT('CenterlinePoint', (0.0, 42.44, 200.11));
#32 = CARTESIAN_POINT('CenterlinePoint', (0.0, 46.6, 200.63));
#33 = CARTESIAN_POINT('CenterlinePoint', (0.0, 50.8, 200.8));
#34 = CARTESIAN_POINT('CenterlinePoint', (0.0, 70.8, 200.8));
#35 = CARTESIAN_POINT('CenterlinePoint', (0.0, 106.8, 200.8));
#36 = CARTESIAN_POINT('CenterlinePoint', (0.0, 142.8, 200.8));
#37 = CARTESIAN_POINT('CenterlinePoint', (0.0, 178.8, 200.8));
#38 = CARTESIAN_POINT('CenterlinePoint', (0.0, 214.8, 200.8));
#39 = CARTESIAN_POINT('CenterlinePoint', (0.0, 250.8, 200.8));
ENDSEC;
END-ISO-10303-21;
