ISO-10303-21;
HEADER;
FILE_DESCRIPTION(('CNC Tube Bending Benchmark Part', '2;1'), '2;1');
FILE_NAME('u_bend_180.step', '2026-09-08T22:00:00', ('Antigravity CAD'), ('Precision Tube'), 'FastAPI STEP Gen', 'CNC CPQ Engine', 'Approved');
FILE_SCHEMA(('AUTOMOTIVE_DESIGN'));
ENDSEC;
DATA;
/* CPQ_META: {"name": "180\u00b0 Intercooler Return U-Bend", "tube_od_mm": 31.75, "wall_thickness_mm": 1.65, "bends": [{"bend_number": 1, "angle_deg": 180.0, "clr_mm": 63.5, "arc_length_mm": 199.49, "center": [0.0, 63.5, 160.0], "direction": "180\u00b0 Return"}], "centerline": [[0.0, 0.0, 0.0], [0.0, 0.0, 32.0], [0.0, 0.0, 64.0], [0.0, 0.0, 96.0], [0.0, 0.0, 128.0], [0.0, 0.0, 160.0], [0.0, 0.54, 168.29], [0.0, 2.16, 176.44], [0.0, 4.83, 184.3], [0.0, 8.51, 191.75], [0.0, 13.12, 198.66], [0.0, 18.6, 204.9], [0.0, 24.84, 210.38], [0.0, 31.75, 214.99], [0.0, 39.2, 218.67], [0.0, 47.06, 221.34], [0.0, 55.21, 222.96], [0.0, 63.5, 223.5], [0.0, 71.79, 222.96], [0.0, 79.94, 221.34], [0.0, 87.8, 218.67], [0.0, 95.25, 214.99], [0.0, 102.16, 210.38], [0.0, 108.4, 204.9], [0.0, 113.88, 198.66], [0.0, 118.49, 191.75], [0.0, 122.17, 184.3], [0.0, 124.84, 176.44], [0.0, 126.46, 168.29], [0.0, 127.0, 160.0], [0.0, 127.0, 140.0], [0.0, 127.0, 112.0], [0.0, 127.0, 84.0], [0.0, 127.0, 56.0], [0.0, 127.0, 28.0], [0.0, 127.0, 0.0]], "flattened_length_mm": 519.49} */
#1 = APPLICATION_CONTEXT('core data for automotive design');
#2 = CARTESIAN_POINT('Origin', (0., 0., 0.));
#3 = DIRECTION('Z_Axis', (0., 0., 1.));
#4 = DIRECTION('X_Axis', (1., 0., 0.));
#5 = AXIS2_PLACEMENT_3D('Placement', #2, #3, #4);
#6 = CYLINDRICAL_SURFACE('Leg_1_Straight', #5, 15.875);
#7 = CYLINDRICAL_SURFACE('Leg_2_Straight', #5, 15.875);
#8 = TOROIDAL_SURFACE('Bend_1_Toroid', #5, 63.5, 15.875);
#9 = CARTESIAN_POINT('CenterlinePoint', (0.0, 0.0, 0.0));
#10 = CARTESIAN_POINT('CenterlinePoint', (0.0, 0.0, 32.0));
#11 = CARTESIAN_POINT('CenterlinePoint', (0.0, 0.0, 64.0));
#12 = CARTESIAN_POINT('CenterlinePoint', (0.0, 0.0, 96.0));
#13 = CARTESIAN_POINT('CenterlinePoint', (0.0, 0.0, 128.0));
#14 = CARTESIAN_POINT('CenterlinePoint', (0.0, 0.0, 160.0));
#15 = CARTESIAN_POINT('CenterlinePoint', (0.0, 0.54, 168.29));
#16 = CARTESIAN_POINT('CenterlinePoint', (0.0, 2.16, 176.44));
#17 = CARTESIAN_POINT('CenterlinePoint', (0.0, 4.83, 184.3));
#18 = CARTESIAN_POINT('CenterlinePoint', (0.0, 8.51, 191.75));
#19 = CARTESIAN_POINT('CenterlinePoint', (0.0, 13.12, 198.66));
#20 = CARTESIAN_POINT('CenterlinePoint', (0.0, 18.6, 204.9));
#21 = CARTESIAN_POINT('CenterlinePoint', (0.0, 24.84, 210.38));
#22 = CARTESIAN_POINT('CenterlinePoint', (0.0, 31.75, 214.99));
#23 = CARTESIAN_POINT('CenterlinePoint', (0.0, 39.2, 218.67));
#24 = CARTESIAN_POINT('CenterlinePoint', (0.0, 47.06, 221.34));
#25 = CARTESIAN_POINT('CenterlinePoint', (0.0, 55.21, 222.96));
#26 = CARTESIAN_POINT('CenterlinePoint', (0.0, 63.5, 223.5));
#27 = CARTESIAN_POINT('CenterlinePoint', (0.0, 71.79, 222.96));
#28 = CARTESIAN_POINT('CenterlinePoint', (0.0, 79.94, 221.34));
#29 = CARTESIAN_POINT('CenterlinePoint', (0.0, 87.8, 218.67));
#30 = CARTESIAN_POINT('CenterlinePoint', (0.0, 95.25, 214.99));
#31 = CARTESIAN_POINT('CenterlinePoint', (0.0, 102.16, 210.38));
#32 = CARTESIAN_POINT('CenterlinePoint', (0.0, 108.4, 204.9));
#33 = CARTESIAN_POINT('CenterlinePoint', (0.0, 113.88, 198.66));
#34 = CARTESIAN_POINT('CenterlinePoint', (0.0, 118.49, 191.75));
#35 = CARTESIAN_POINT('CenterlinePoint', (0.0, 122.17, 184.3));
#36 = CARTESIAN_POINT('CenterlinePoint', (0.0, 124.84, 176.44));
#37 = CARTESIAN_POINT('CenterlinePoint', (0.0, 126.46, 168.29));
#38 = CARTESIAN_POINT('CenterlinePoint', (0.0, 127.0, 160.0));
#39 = CARTESIAN_POINT('CenterlinePoint', (0.0, 127.0, 140.0));
#40 = CARTESIAN_POINT('CenterlinePoint', (0.0, 127.0, 112.0));
#41 = CARTESIAN_POINT('CenterlinePoint', (0.0, 127.0, 84.0));
#42 = CARTESIAN_POINT('CenterlinePoint', (0.0, 127.0, 56.0));
#43 = CARTESIAN_POINT('CenterlinePoint', (0.0, 127.0, 28.0));
#44 = CARTESIAN_POINT('CenterlinePoint', (0.0, 127.0, 0.0));
ENDSEC;
END-ISO-10303-21;
