ISO-10303-21;
HEADER;
FILE_DESCRIPTION(('CNC Tube Bending Benchmark Part', '2;1'), '2;1');
FILE_NAME('exhaust_manifold_tube.step', '2026-09-08T22:00:00', ('Antigravity CAD'), ('Precision Tube'), 'FastAPI STEP Gen', 'CNC CPQ Engine', 'Approved');
FILE_SCHEMA(('AUTOMOTIVE_DESIGN'));
ENDSEC;
DATA;
/* CPQ_META: {"name": "3D Compound Header Tube", "tube_od_mm": 38.1, "wall_thickness_mm": 1.65, "bends": [{"bend_number": 1, "angle_deg": 65.0, "clr_mm": 76.2, "arc_length_mm": 86.45, "center": [0, 76.2, 140.0], "direction": "Pitch (+Y)"}, {"bend_number": 2, "angle_deg": 85.0, "clr_mm": 76.2, "arc_length_mm": 113.04, "center": [76.2, 241.3, 294.64], "direction": "Yaw (+X)"}, {"bend_number": 3, "angle_deg": 45.0, "clr_mm": 76.2, "arc_length_mm": 59.85, "center": [103.46, 241.3, 370.84], "direction": "Roll (+Z)"}], "centerline": [[0.0, 0.0, 0.0], [0.0, 0.0, 35.0], [0.0, 0.0, 70.0], [0.0, 0.0, 105.0], [0.0, 0.0, 140.0], [0.0, 0.29, 146.64], [0.0, 1.16, 153.23], [0.0, 2.6, 159.72], [0.0, 4.6, 166.06], [0.0, 7.14, 172.2], [0.0, 10.21, 178.1], [0.0, 13.78, 183.71], [0.0, 17.83, 188.98], [0.0, 22.32, 193.88], [0.0, 27.22, 198.37], [0.0, 32.49, 202.42], [0.0, 38.1, 205.99], [0.0, 44.0, 209.06], [0.0, 57.59, 215.4], [0.0, 75.72, 223.85], [0.0, 93.85, 232.3], [0.0, 111.97, 240.76], [8.68, 112.47, 240.76], [17.24, 113.95, 240.76], [25.58, 116.39, 240.76], [33.59, 119.77, 240.76], [41.16, 124.04, 240.76], [48.19, 129.15, 240.76], [54.6, 135.02, 240.76], [60.3, 141.58, 240.76], [65.21, 148.75, 240.76], [69.28, 156.43, 240.76], [72.44, 164.53, 240.76], [74.66, 172.93, 240.76], [75.91, 181.53, 240.76], [77.22, 196.47, 240.76], [79.18, 218.89, 240.76], [81.14, 241.3, 240.76], [81.43, 241.3, 247.4], [82.3, 241.3, 253.99], [83.74, 241.3, 260.48], [85.74, 241.3, 266.82], [88.28, 241.3, 272.96], [91.35, 241.3, 278.86], [94.92, 241.3, 284.47], [98.97, 241.3, 289.74], [103.46, 241.3, 294.64], [103.46, 241.3, 314.64], [103.46, 241.3, 344.64], [103.46, 241.3, 374.64], [103.46, 241.3, 404.64]], "flattened_length_mm": 644.34} */
#1 = APPLICATION_CONTEXT('core data for automotive design');
#2 = CARTESIAN_POINT('Origin', (0., 0., 0.));
#3 = DIRECTION('Z_Axis', (0., 0., 1.));
#4 = DIRECTION('X_Axis', (1., 0., 0.));
#5 = AXIS2_PLACEMENT_3D('Placement', #2, #3, #4);
#6 = CYLINDRICAL_SURFACE('Leg_1_Straight', #5, 19.05);
#7 = CYLINDRICAL_SURFACE('Leg_2_Straight', #5, 19.05);
#8 = CYLINDRICAL_SURFACE('Leg_3_Straight', #5, 19.05);
#9 = CYLINDRICAL_SURFACE('Leg_4_Straight', #5, 19.05);
#10 = TOROIDAL_SURFACE('Bend_1_Toroid', #5, 76.2, 19.05);
#11 = TOROIDAL_SURFACE('Bend_2_Toroid', #5, 76.2, 19.05);
#12 = TOROIDAL_SURFACE('Bend_3_Toroid', #5, 76.2, 19.05);
#13 = CARTESIAN_POINT('CenterlinePoint', (0.0, 0.0, 0.0));
#14 = CARTESIAN_POINT('CenterlinePoint', (0.0, 0.0, 35.0));
#15 = CARTESIAN_POINT('CenterlinePoint', (0.0, 0.0, 70.0));
#16 = CARTESIAN_POINT('CenterlinePoint', (0.0, 0.0, 105.0));
#17 = CARTESIAN_POINT('CenterlinePoint', (0.0, 0.0, 140.0));
#18 = CARTESIAN_POINT('CenterlinePoint', (0.0, 0.29, 146.64));
#19 = CARTESIAN_POINT('CenterlinePoint', (0.0, 1.16, 153.23));
#20 = CARTESIAN_POINT('CenterlinePoint', (0.0, 2.6, 159.72));
#21 = CARTESIAN_POINT('CenterlinePoint', (0.0, 4.6, 166.06));
#22 = CARTESIAN_POINT('CenterlinePoint', (0.0, 7.14, 172.2));
#23 = CARTESIAN_POINT('CenterlinePoint', (0.0, 10.21, 178.1));
#24 = CARTESIAN_POINT('CenterlinePoint', (0.0, 13.78, 183.71));
#25 = CARTESIAN_POINT('CenterlinePoint', (0.0, 17.83, 188.98));
#26 = CARTESIAN_POINT('CenterlinePoint', (0.0, 22.32, 193.88));
#27 = CARTESIAN_POINT('CenterlinePoint', (0.0, 27.22, 198.37));
#28 = CARTESIAN_POINT('CenterlinePoint', (0.0, 32.49, 202.42));
#29 = CARTESIAN_POINT('CenterlinePoint', (0.0, 38.1, 205.99));
#30 = CARTESIAN_POINT('CenterlinePoint', (0.0, 44.0, 209.06));
#31 = CARTESIAN_POINT('CenterlinePoint', (0.0, 57.59, 215.4));
#32 = CARTESIAN_POINT('CenterlinePoint', (0.0, 75.72, 223.85));
#33 = CARTESIAN_POINT('CenterlinePoint', (0.0, 93.85, 232.3));
#34 = CARTESIAN_POINT('CenterlinePoint', (0.0, 111.97, 240.76));
#35 = CARTESIAN_POINT('CenterlinePoint', (8.68, 112.47, 240.76));
#36 = CARTESIAN_POINT('CenterlinePoint', (17.24, 113.95, 240.76));
#37 = CARTESIAN_POINT('CenterlinePoint', (25.58, 116.39, 240.76));
#38 = CARTESIAN_POINT('CenterlinePoint', (33.59, 119.77, 240.76));
#39 = CARTESIAN_POINT('CenterlinePoint', (41.16, 124.04, 240.76));
#40 = CARTESIAN_POINT('CenterlinePoint', (48.19, 129.15, 240.76));
#41 = CARTESIAN_POINT('CenterlinePoint', (54.6, 135.02, 240.76));
#42 = CARTESIAN_POINT('CenterlinePoint', (60.3, 141.58, 240.76));
#43 = CARTESIAN_POINT('CenterlinePoint', (65.21, 148.75, 240.76));
#44 = CARTESIAN_POINT('CenterlinePoint', (69.28, 156.43, 240.76));
#45 = CARTESIAN_POINT('CenterlinePoint', (72.44, 164.53, 240.76));
#46 = CARTESIAN_POINT('CenterlinePoint', (74.66, 172.93, 240.76));
#47 = CARTESIAN_POINT('CenterlinePoint', (75.91, 181.53, 240.76));
#48 = CARTESIAN_POINT('CenterlinePoint', (77.22, 196.47, 240.76));
#49 = CARTESIAN_POINT('CenterlinePoint', (79.18, 218.89, 240.76));
#50 = CARTESIAN_POINT('CenterlinePoint', (81.14, 241.3, 240.76));
#51 = CARTESIAN_POINT('CenterlinePoint', (81.43, 241.3, 247.4));
#52 = CARTESIAN_POINT('CenterlinePoint', (82.3, 241.3, 253.99));
#53 = CARTESIAN_POINT('CenterlinePoint', (83.74, 241.3, 260.48));
#54 = CARTESIAN_POINT('CenterlinePoint', (85.74, 241.3, 266.82));
#55 = CARTESIAN_POINT('CenterlinePoint', (88.28, 241.3, 272.96));
#56 = CARTESIAN_POINT('CenterlinePoint', (91.35, 241.3, 278.86));
#57 = CARTESIAN_POINT('CenterlinePoint', (94.92, 241.3, 284.47));
#58 = CARTESIAN_POINT('CenterlinePoint', (98.97, 241.3, 289.74));
#59 = CARTESIAN_POINT('CenterlinePoint', (103.46, 241.3, 294.64));
#60 = CARTESIAN_POINT('CenterlinePoint', (103.46, 241.3, 314.64));
#61 = CARTESIAN_POINT('CenterlinePoint', (103.46, 241.3, 344.64));
#62 = CARTESIAN_POINT('CenterlinePoint', (103.46, 241.3, 374.64));
#63 = CARTESIAN_POINT('CenterlinePoint', (103.46, 241.3, 404.64));
ENDSEC;
END-ISO-10303-21;
