ISO-10303-21;
HEADER;
FILE_DESCRIPTION(('CNC Tube Bending Benchmark Part', '2;1'), '2;1');
FILE_NAME('s_bend_coolant_tube.step', '2026-09-08T22:00:00', ('Antigravity CAD'), ('Precision Tube'), 'FastAPI STEP Gen', 'CNC CPQ Engine', 'Approved');
FILE_SCHEMA(('AUTOMOTIVE_DESIGN'));
ENDSEC;
DATA;
/* CPQ_META: {"name": "S-Bend Radiator Bypass Tube", "tube_od_mm": 25.4, "wall_thickness_mm": 1.65, "bends": [{"bend_number": 1, "angle_deg": 45.0, "clr_mm": 50.8, "arc_length_mm": 39.9, "center": [0.0, 50.8, 120.0], "direction": "Right (+Y)"}, {"bend_number": 2, "angle_deg": 45.0, "clr_mm": 50.8, "arc_length_mm": 39.9, "center": [0.0, 20.647518010647175, 212.48956697920042], "direction": "Left (-Y)"}], "centerline": [[0.0, 0.0, 0.0], [0.0, 0.0, 30.0], [0.0, 0.0, 60.0], [0.0, 0.0, 90.0], [0.0, 0.0, 120.0], [0.0, 0.13, 123.62], [0.0, 0.52, 127.23], [0.0, 1.16, 130.8], [0.0, 2.06, 134.31], [0.0, 3.2, 137.75], [0.0, 4.59, 141.1], [0.0, 6.21, 144.35], [0.0, 8.06, 147.46], [0.0, 10.13, 150.44], [0.0, 12.41, 153.27], [0.0, 14.88, 155.92], [0.0, 25.49, 166.53], [0.0, 40.81, 181.85], [0.0, 56.13, 197.17], [0.0, 71.45, 212.49], [0.0, 74.1, 214.96], [0.0, 76.93, 217.24], [0.0, 79.9, 219.3], [0.0, 83.02, 221.15], [0.0, 86.27, 222.78], [0.0, 89.62, 224.17], [0.0, 93.06, 225.31], [0.0, 96.57, 226.21], [0.0, 100.14, 226.85], [0.0, 103.74, 227.24], [0.0, 107.37, 227.37], [0.0, 107.37, 247.37], [0.0, 107.37, 272.37], [0.0, 107.37, 297.37], [0.0, 107.37, 322.37], [0.0, 107.37, 347.37]], "flattened_length_mm": 399.8} */
#1 = APPLICATION_CONTEXT('core data for automotive design');
#2 = CARTESIAN_POINT('Origin', (0., 0., 0.));
#3 = DIRECTION('Z_Axis', (0., 0., 1.));
#4 = DIRECTION('X_Axis', (1., 0., 0.));
#5 = AXIS2_PLACEMENT_3D('Placement', #2, #3, #4);
#6 = CYLINDRICAL_SURFACE('Leg_1_Straight', #5, 12.7);
#7 = CYLINDRICAL_SURFACE('Leg_2_Straight', #5, 12.7);
#8 = CYLINDRICAL_SURFACE('Leg_3_Straight', #5, 12.7);
#9 = TOROIDAL_SURFACE('Bend_1_Toroid', #5, 50.8, 12.7);
#10 = TOROIDAL_SURFACE('Bend_2_Toroid', #5, 50.8, 12.7);
#11 = CARTESIAN_POINT('CenterlinePoint', (0.0, 0.0, 0.0));
#12 = CARTESIAN_POINT('CenterlinePoint', (0.0, 0.0, 30.0));
#13 = CARTESIAN_POINT('CenterlinePoint', (0.0, 0.0, 60.0));
#14 = CARTESIAN_POINT('CenterlinePoint', (0.0, 0.0, 90.0));
#15 = CARTESIAN_POINT('CenterlinePoint', (0.0, 0.0, 120.0));
#16 = CARTESIAN_POINT('CenterlinePoint', (0.0, 0.13, 123.62));
#17 = CARTESIAN_POINT('CenterlinePoint', (0.0, 0.52, 127.23));
#18 = CARTESIAN_POINT('CenterlinePoint', (0.0, 1.16, 130.8));
#19 = CARTESIAN_POINT('CenterlinePoint', (0.0, 2.06, 134.31));
#20 = CARTESIAN_POINT('CenterlinePoint', (0.0, 3.2, 137.75));
#21 = CARTESIAN_POINT('CenterlinePoint', (0.0, 4.59, 141.1));
#22 = CARTESIAN_POINT('CenterlinePoint', (0.0, 6.21, 144.35));
#23 = CARTESIAN_POINT('CenterlinePoint', (0.0, 8.06, 147.46));
#24 = CARTESIAN_POINT('CenterlinePoint', (0.0, 10.13, 150.44));
#25 = CARTESIAN_POINT('CenterlinePoint', (0.0, 12.41, 153.27));
#26 = CARTESIAN_POINT('CenterlinePoint', (0.0, 14.88, 155.92));
#27 = CARTESIAN_POINT('CenterlinePoint', (0.0, 25.49, 166.53));
#28 = CARTESIAN_POINT('CenterlinePoint', (0.0, 40.81, 181.85));
#29 = CARTESIAN_POINT('CenterlinePoint', (0.0, 56.13, 197.17));
#30 = CARTESIAN_POINT('CenterlinePoint', (0.0, 71.45, 212.49));
#31 = CARTESIAN_POINT('CenterlinePoint', (0.0, 74.1, 214.96));
#32 = CARTESIAN_POINT('CenterlinePoint', (0.0, 76.93, 217.24));
#33 = CARTESIAN_POINT('CenterlinePoint', (0.0, 79.9, 219.3));
#34 = CARTESIAN_POINT('CenterlinePoint', (0.0, 83.02, 221.15));
#35 = CARTESIAN_POINT('CenterlinePoint', (0.0, 86.27, 222.78));
#36 = CARTESIAN_POINT('CenterlinePoint', (0.0, 89.62, 224.17));
#37 = CARTESIAN_POINT('CenterlinePoint', (0.0, 93.06, 225.31));
#38 = CARTESIAN_POINT('CenterlinePoint', (0.0, 96.57, 226.21));
#39 = CARTESIAN_POINT('CenterlinePoint', (0.0, 100.14, 226.85));
#40 = CARTESIAN_POINT('CenterlinePoint', (0.0, 103.74, 227.24));
#41 = CARTESIAN_POINT('CenterlinePoint', (0.0, 107.37, 227.37));
#42 = CARTESIAN_POINT('CenterlinePoint', (0.0, 107.37, 247.37));
#43 = CARTESIAN_POINT('CenterlinePoint', (0.0, 107.37, 272.37));
#44 = CARTESIAN_POINT('CenterlinePoint', (0.0, 107.37, 297.37));
#45 = CARTESIAN_POINT('CenterlinePoint', (0.0, 107.37, 322.37));
#46 = CARTESIAN_POINT('CenterlinePoint', (0.0, 107.37, 347.37));
ENDSEC;
END-ISO-10303-21;
